<?xml version="1.0" standalone="no"?>
<!DOCTYPE svg PUBLIC "-//W3C//DTD SVG 20010904//EN"
 "http://www.w3.org/TR/2001/REC-SVG-20010904/DTD/svg10.dtd">
<svg version="1.0" xmlns="http://www.w3.org/2000/svg"
 width="1278.000000pt" height="1278.000000pt" viewBox="0 0 1278.000000 1278.000000"
 preserveAspectRatio="xMidYMid meet">
<metadata>
Created by potrace 1.11, written by Peter Selinger 2001-2013
</metadata>
<g transform="translate(0.000000,1278.000000) scale(0.100000,-0.100000)"
fill="#000000" stroke="none">
<path d="M5958 11516 c-1 -2 -28 -6 -58 -9 -97 -9 -208 -55 -337 -139 -43 -28
-81 -56 -85 -62 -4 -6 -28 -72 -53 -146 -25 -74 -61 -178 -79 -230 -19 -52
-77 -223 -131 -380 -54 -157 -106 -301 -118 -320 -11 -19 -31 -55 -45 -80 -14
-25 -72 -128 -130 -230 -58 -102 -113 -198 -122 -215 -170 -300 -429 -755
-542 -955 -248 -436 -570 -1002 -601 -1060 -17 -30 -50 -88 -74 -128 -24 -41
-43 -75 -43 -77 0 -1 -32 -58 -70 -124 -38 -67 -70 -124 -70 -127 0 -12 -72
-113 -304 -424 -381 -512 -459 -618 -701 -960 -234 -330 -489 -709 -660 -982
-70 -111 -141 -210 -191 -265 -155 -171 -180 -199 -234 -262 -30 -35 -60 -69
-66 -75 -5 -6 -64 -76 -130 -156 -400 -486 -642 -881 -715 -1168 -20 -76 -23
-116 -24 -317 -1 -126 1 -241 4 -255 9 -33 82 -70 149 -74 51 -3 53 -4 104
-72 105 -140 225 -227 323 -236 l40 -4 3 -52 3 -52 37 -1 c55 -2 65 1 90 24
12 11 22 19 23 16 0 -2 3 -20 5 -39 9 -67 60 -157 127 -224 68 -69 178 -146
208 -146 10 0 31 11 47 25 l30 25 32 -76 c17 -43 41 -101 52 -130 20 -53 21
-53 55 -48 115 18 244 104 407 269 66 67 146 160 174 201 33 51 447 628 464
649 8 9 96 129 136 183 21 30 159 212 175 232 7 8 45 58 86 110 41 52 77 97
80 100 3 3 30 34 60 70 30 36 88 99 130 140 57 56 80 86 90 120 70 233 588
510 1611 861 129 44 251 85 270 91 19 5 60 18 90 28 77 26 355 112 497 154 65
19 179 53 253 74 263 78 545 155 572 157 29 3 30 0 58 -145 6 -30 12 -64 14
-75 52 -255 67 -331 72 -363 3 -20 8 -40 10 -43 2 -3 6 -21 9 -40 3 -19 15
-74 25 -124 65 -309 90 -425 95 -437 2 -7 6 -26 9 -43 2 -16 19 -93 36 -170
18 -77 38 -167 46 -200 7 -33 34 -145 59 -250 57 -234 52 -214 75 -300 6 -22
15 -56 20 -75 4 -19 23 -84 40 -145 17 -60 35 -123 40 -140 16 -60 83 -262
110 -330 70 -177 67 -173 297 -400 l216 -213 256 104 c141 57 260 102 266 100
5 -2 53 -37 106 -79 l97 -75 73 49 c43 28 77 45 82 40 5 -5 8 -27 6 -48 l-4
-40 51 -1 c60 -1 61 1 58 95 l-2 62 62 -43 c111 -79 185 -107 293 -111 l61 -3
78 80 77 80 0 147 c0 166 -11 368 -26 496 -3 22 -8 72 -12 110 -4 39 -9 77
-10 85 -2 8 -6 40 -10 70 -4 30 -9 66 -11 80 -2 14 -8 52 -13 85 -22 140 -20
127 -37 225 -10 55 -12 73 -18 110 -3 19 -10 60 -16 90 -6 30 -13 69 -16 85
-9 52 -53 273 -95 470 -21 105 -41 199 -43 210 -2 11 -20 90 -39 175 -20 85
-38 166 -41 180 -3 14 -19 84 -36 155 -17 72 -33 141 -35 155 -3 14 -52 214
-109 445 -57 231 -102 423 -100 426 2 3 38 12 81 19 43 7 85 14 94 15 9 2 34
6 55 9 98 16 161 26 184 31 14 3 39 7 55 9 51 8 107 17 200 33 50 8 104 17
120 19 17 2 55 9 85 14 73 13 116 19 170 24 25 3 101 12 170 21 69 9 145 18
170 21 25 3 70 9 100 14 30 5 82 12 115 16 33 3 62 8 65 9 3 2 30 6 60 10 30
3 80 10 110 15 30 5 72 11 93 14 53 8 106 17 131 22 11 2 41 7 66 10 25 3 54
8 65 10 11 3 70 13 130 24 161 29 159 29 295 56 490 97 892 213 1162 336 l68
31 0 53 0 53 -67 21 c-38 12 -77 23 -88 26 -11 2 -51 13 -90 25 -38 11 -80 23
-92 26 -29 7 -29 9 3 36 22 19 24 26 15 48 -13 36 -111 90 -188 104 -16 2 -53
9 -83 15 -30 6 -71 13 -90 16 -19 2 -46 6 -60 9 -22 4 -67 8 -205 21 -22 1
-98 6 -170 9 -71 4 -154 8 -184 9 -30 2 -69 0 -85 -5 -17 -4 -46 -11 -64 -14
-18 -3 -61 -12 -95 -20 -56 -14 -63 -13 -72 1 -41 67 -119 114 -278 169 l-78
27 -125 -27 c-69 -15 -129 -24 -132 -20 -4 4 -7 27 -7 51 0 44 0 44 35 45 19
0 42 2 50 3 8 2 44 6 80 10 84 10 297 65 441 115 247 85 222 70 221 136 0 50
-1 55 -14 50 -7 -2 -31 -7 -53 -10 -92 -13 -114 -17 -202 -31 -56 -8 -166 -14
-276 -14 l-184 0 1 27 c1 30 10 33 309 118 l57 16 0 50 0 49 -97 -5 c-54 -3
-134 -7 -178 -10 -44 -3 -120 -8 -170 -10 -49 -3 -112 -7 -140 -10 -27 -2
-107 -7 -177 -10 l-127 -6 1 51 c0 28 -2 53 -4 55 -1 2 -25 -1 -53 -5 -27 -4
-75 -11 -105 -14 -30 -4 -68 -9 -85 -11 -16 -3 -52 -7 -80 -10 -47 -5 -181
-22 -235 -30 -14 -2 -52 -7 -85 -10 -33 -4 -73 -9 -90 -12 -39 -5 -68 -9 -135
-17 -165 -20 -283 -35 -320 -41 -14 -2 -52 -7 -85 -10 -33 -4 -73 -9 -90 -11
-16 -2 -50 -7 -75 -10 -25 -3 -58 -7 -75 -10 -32 -4 -147 -16 -155 -16 -36 -1
-73 40 -99 110 -12 31 -28 102 -36 156 -12 83 -19 104 -41 127 -15 15 -28 40
-30 56 -1 15 -5 46 -8 68 -6 39 -12 90 -21 171 -2 22 -6 58 -9 82 -6 45 -11
83 -21 177 -4 33 -9 71 -11 85 -3 22 -16 121 -29 227 -12 99 -26 210 -30 233
-2 14 -7 48 -10 75 -7 63 -12 102 -24 190 -6 39 -13 89 -16 113 -8 67 -15 116
-19 138 -2 12 -7 45 -11 75 -3 30 -8 65 -10 79 -3 14 -7 43 -10 65 -2 22 -14
101 -25 175 -12 74 -23 151 -26 170 -2 19 -7 45 -9 56 -3 12 -9 50 -15 85 -10
69 -13 89 -36 219 -8 47 -19 110 -25 140 -9 58 -15 89 -24 130 -3 14 -7 36
-10 50 -3 14 -9 48 -15 75 -6 28 -12 59 -14 70 -2 11 -9 38 -14 60 -6 22 -13
51 -16 65 -10 57 -97 222 -163 310 -52 69 -161 177 -235 232 -235 175 -570
292 -958 334 -25 3 -61 7 -80 9 -19 3 -107 7 -195 11 -88 3 -165 7 -172 9 -6
2 -13 2 -15 1z m310 -4003 c6 -21 22 -105 36 -188 15 -82 31 -170 36 -195 6
-25 12 -61 15 -80 3 -19 8 -42 10 -50 3 -8 7 -32 9 -54 3 -21 8 -46 10 -55 3
-9 7 -33 10 -53 3 -21 10 -56 15 -79 10 -46 -1 -64 -61 -95 -77 -40 -334 -123
-623 -201 -211 -57 -197 -56 -193 -25 2 15 41 92 87 172 46 80 91 159 101 176
86 150 270 441 351 554 71 101 165 210 179 210 5 0 13 -17 18 -37z m4267 -558
c0 -17 -8 -20 -52 -23 -51 -3 -53 -2 -53 23 0 25 2 26 53 23 44 -3 52 -6 52
-23z"/>
<path d="M10376 7341 c-2 -3 -4 -27 -5 -53 l-1 -48 55 0 55 0 -3 53 -2 52 -48
1 c-26 1 -49 -1 -51 -5z"/>
</g>
</svg>
